<svg xmlns="http://www.w3.org/2000/svg" xmlns:xlink="http://www.w3.org/1999/xlink" width="500" zoomAndPan="magnify" viewBox="0 0 375 374.999991" height="500" preserveAspectRatio="xMidYMid meet" version="1.0"><defs><clipPath id="42762af606"><path d="M 29.0625 198 L 344 198 L 344 354 L 29.0625 354 Z M 29.0625 198 " clip-rule="nonzero"/></clipPath><clipPath id="ca9f6c797b"><path d="M 30 21 L 346.3125 21 L 346.3125 173 L 30 173 Z M 30 21 " clip-rule="nonzero"/></clipPath></defs><g clip-path="url(#42762af606)"><path fill="#02c1c1" d="M 342.609375 234.113281 C 342.847656 233.191406 343.082031 232.269531 343.300781 231.34375 C 345.199219 222.0625 342.492188 214.585938 339.835938 213.804688 C 336.921875 212.949219 333.648438 219.863281 333.648438 219.863281 C 301.457031 288.050781 255.761719 304.230469 255.761719 304.230469 C 302.605469 269.765625 296.277344 260.546875 290.699219 256.578125 C 285.121094 252.605469 273.503906 265.296875 260.914062 275.140625 C 250.898438 282.972656 232.839844 277.988281 232.839844 277.988281 C 193.742188 271.070312 163.488281 302.757812 163.488281 302.757812 C 145.261719 324.308594 108.332031 304.796875 108.332031 304.796875 C 39.628906 275.558594 29.0625 198.496094 29.0625 198.496094 C 29.855469 228.609375 39.207031 258.832031 57.777344 285.371094 C 108.210938 357.402344 207.554688 374.960938 279.675781 324.589844 C 312.050781 301.988281 333.433594 269.535156 342.609375 234.113281 Z M 342.609375 234.113281 " fill-opacity="1" fill-rule="nonzero"/></g><g clip-path="url(#ca9f6c797b)"><path fill="#309f00" d="M 32.121094 143.550781 C 31.902344 144.480469 31.691406 145.40625 31.488281 146.335938 C 29.777344 155.648438 32.625 163.078125 35.300781 163.804688 C 38.234375 164.597656 41.363281 157.625 41.363281 157.625 C 72.195312 88.804688 117.554688 71.722656 117.554688 71.722656 C 71.410156 107.113281 77.914062 116.199219 83.566406 120.0625 C 89.222656 123.925781 100.585938 111.007812 112.976562 100.910156 C 122.839844 92.878906 140.992188 97.503906 140.992188 97.503906 C 180.222656 103.640625 209.839844 71.359375 209.839844 71.359375 C 227.632812 49.441406 264.9375 68.226562 264.9375 68.226562 C 334.21875 96.089844 346.3125 172.929688 346.3125 172.929688 C 344.921875 142.835938 334.972656 112.800781 315.871094 86.636719 C 264.019531 15.625 164.34375 0.0351562 93.242188 51.835938 C 61.328125 75.085938 40.589844 107.953125 32.121094 143.550781 Z M 32.121094 143.550781 " fill-opacity="1" fill-rule="nonzero"/></g><path fill="#f4f6fc" d="M 278.730469 235.746094 C 272.371094 224.03125 268.960938 209.804688 267.707031 203.734375 C 265.65625 193.175781 263.273438 179.945312 262.742188 177.269531 C 261.867188 172.894531 266.53125 156.566406 262.742188 154.820312 C 258.945312 153.074219 247.273438 167.066406 247.273438 167.066406 C 243.769531 165.3125 237.351562 167.066406 237.351562 167.066406 C 237.351562 167.066406 231.804688 146.363281 227.136719 146.363281 C 222.46875 146.363281 219.546875 169.398438 219.546875 169.398438 C 214.296875 168.8125 205.246094 175.515625 205.246094 181.640625 C 205.246094 193.011719 199.988281 193.304688 197.65625 195.636719 C 195.320312 197.96875 196.78125 204.089844 199.410156 211.378906 C 202.039062 218.664062 210.5 218.085938 215.171875 219.25 C 217.632812 219.871094 218.308594 222.753906 218.394531 225.347656 C 218.285156 226.515625 218.207031 227.761719 218.195312 229.039062 C 218.164062 233.042969 216.121094 235.945312 215.042969 237.203125 C 214.25 237.871094 213.375 238.636719 213.375 238.636719 C 203.027344 246.933594 200.519531 263.835938 199.984375 273.25 C 205 272.222656 216.640625 270.695312 221.589844 270.695312 C 225.730469 270.695312 229.886719 271.0625 233.949219 271.777344 L 234.257812 271.835938 L 234.523438 271.910156 C 234.710938 271.960938 239.601562 273.25 245.257812 273.25 C 248.839844 273.25 253.789062 272.71875 257.03125 270.183594 C 259.972656 267.882812 262.894531 265.394531 265.71875 262.984375 C 274.207031 255.742188 280.980469 249.96875 287.519531 249.554688 C 284.207031 244.539062 281.1875 239.730469 278.730469 235.746094 Z M 278.730469 235.746094 " fill-opacity="1" fill-rule="nonzero"/><path fill="#f4f6fc" d="M 172.578125 209.488281 C 170.050781 199.109375 170.273438 186.144531 170.277344 186.097656 C 170.9375 179.558594 174.421875 176.761719 190.910156 172.839844 C 209.71875 168.363281 209.398438 142.207031 208.683594 133.015625 C 208.683594 133.015625 208.441406 131.539062 207.804688 131.046875 C 207.167969 130.554688 205.414062 130.902344 205.414062 130.902344 C 192.625 134.878906 173.464844 132.542969 173.464844 132.542969 C 161.566406 112.652344 149.070312 111.148438 137.359375 112.292969 C 125.644531 113.4375 88.671875 142.34375 96.707031 154.042969 C 104.746094 165.738281 123.359375 176.597656 130.695312 176.980469 C 138.46875 177.382812 135.164062 157.480469 135.164062 157.480469 C 133.542969 146.882812 131.820312 141.277344 131.457031 136.710938 C 130.835938 128.902344 140.320312 127.773438 140.320312 127.773438 C 131.371094 129.449219 134.371094 138.902344 134.371094 138.902344 C 142.816406 175.03125 138.382812 177.242188 131.183594 179.359375 C 124.382812 181.359375 106.949219 169.105469 106.949219 169.105469 C 106.949219 169.105469 106.988281 172.300781 107.042969 176.355469 C 107.109375 200.914062 99.167969 216.402344 97.097656 220.023438 C 96.9375 220.296875 96.785156 220.5625 96.625 220.824219 C 96.625 220.824219 96.605469 220.851562 96.605469 220.851562 C 94.554688 224.300781 92.527344 227.636719 90.941406 230.085938 C 88.140625 234.414062 75.777344 250.195312 64.90625 263.914062 C 77.351562 279.539062 92.710938 291.292969 110.8125 298.996094 L 111.054688 299.101562 L 111.292969 299.222656 C 111.425781 299.296875 125.488281 306.59375 139.445312 306.585938 C 147.886719 306.585938 154.179688 304 158.671875 298.683594 L 158.792969 298.539062 L 158.925781 298.398438 C 159.203125 298.113281 165.753906 291.304688 176.640625 284.519531 C 181.527344 281.476562 186.535156 278.90625 191.59375 276.835938 C 201.074219 264.152344 184.835938 240.691406 183.1875 238.15625 C 178.683594 231.246094 174.511719 216.816406 172.578125 209.488281 Z M 172.578125 209.488281 " fill-opacity="1" fill-rule="nonzero"/></svg>